<svg width="40" height="40" viewBox="0 0 40 40" fill="none" xmlns="http://www.w3.org/2000/svg">
<g clip-path="url(#clip0_58_988)">
<mask id="mask0_58_988" style="mask-type:luminance" maskUnits="userSpaceOnUse" x="0" y="0" width="40" height="40">
<path d="M0 0H40V40H0V0Z" fill="white"/>
</mask>
<g mask="url(#mask0_58_988)">
<path d="M13.3336 13.3336H0C0 5.9696 5.9696 0 13.3336 0V13.3336Z" fill="#E24500"/>
<path d="M13.3336 26.6664C5.9696 26.6664 0 20.6976 0 13.3336H13.3336V26.6664Z" fill="#1A748E"/>
<path d="M40.0001 26.6664H26.6665V13.3328C34.0305 13.3328 40.0001 19.3024 40.0001 26.6664Z" fill="#5FC6E0"/>
<path d="M13.3336 40C5.9696 40 0 34.0304 0 26.6664H13.3336V40Z" fill="#FECF91"/>
<path d="M26.6665 40V26.6664H40.0001C40.0001 34.0304 34.0305 40 26.6665 40Z" fill="#1A748E"/>
<path d="M26.6663 13.3336H13.3335V0C20.6967 0 26.6663 5.9696 26.6663 13.3336Z" fill="#FF7A2E"/>
<path d="M26.6663 26.6664H13.3335V13.3328C20.6967 13.3328 26.6663 19.3024 26.6663 26.6664Z" fill="#5FC6E0"/>
<path d="M13.3335 40V26.6664H26.6663C26.6663 34.0304 20.6975 40 13.3335 40Z" fill="#FFBB01"/>
<path d="M37.7312 6.6664C37.7312 8.13358 37.1484 9.54066 36.111 10.5781C35.0735 11.6156 33.6664 12.1984 32.1992 12.1984C30.7321 12.1984 29.325 11.6156 28.2875 10.5781C27.2501 9.54066 26.6672 8.13358 26.6672 6.6664C26.6672 5.19922 27.2501 3.79214 28.2875 2.75468C29.325 1.71723 30.7321 1.1344 32.1992 1.1344C33.6664 1.1344 35.0735 1.71723 36.111 2.75468C37.1484 3.79214 37.7312 5.19922 37.7312 6.6664Z" fill="#FFF033"/>
</g>
</g>
<defs>
<clipPath id="clip0_58_988">
<rect width="40" height="40" fill="white"/>
</clipPath>
</defs>
</svg>
