<svg width="37" height="22" viewBox="0 0 37 22" fill="none" xmlns="http://www.w3.org/2000/svg">
<g clip-path="url(#clip0_63_1055)">
<mask id="mask0_63_1055" style="mask-type:luminance" maskUnits="userSpaceOnUse" x="0" y="0" width="37" height="22">
<path d="M0 0H37V22H0V0Z" fill="white"/>
</mask>
<g mask="url(#mask0_63_1055)">
<path d="M10.838 5.343L8.05 8.172L0 0H5.572L10.837 5.343H10.838ZM37 11C37 17.066 32.138 22 26.163 22C23.175 22 20.466 20.767 18.504 18.775L18.5 18.779L16.41 16.658L19.197 13.829L21.287 15.951L21.289 15.947C21.9239 16.5964 22.682 17.1125 23.519 17.465C24.3559 17.8176 25.2548 17.9994 26.163 18C29.965 18 33.059 14.86 33.059 11C33.059 7.14 29.965 4 26.163 4C25.2548 4.00055 24.3559 4.18243 23.519 4.53497C22.682 4.8875 21.9239 5.4036 21.289 6.053L21.287 6.051L5.573 22H0L18.5 3.22L18.504 3.225C20.466 1.234 23.175 0 26.164 0C32.137 0 37 4.935 37 11Z" fill="white"/>
<path d="M27.7389 11C27.7389 11.884 27.0329 12.6 26.1629 12.6C25.2929 12.6 24.5859 11.884 24.5859 11C24.5859 10.116 25.2919 9.40002 26.1629 9.40002C27.0329 9.40002 27.7389 10.116 27.7389 11Z" fill="white"/>
</g>
</g>
<defs>
<clipPath id="clip0_63_1055">
<rect width="37" height="22" fill="white"/>
</clipPath>
</defs>
</svg>
