<svg width="40" height="40" viewBox="0 0 40 40" fill="none" xmlns="http://www.w3.org/2000/svg">
<path fill-rule="evenodd" clip-rule="evenodd" d="M32.9617 7.38328C33.3736 7.20993 33.8244 7.15014 34.2672 7.21014C34.71 7.27013 35.1287 7.44772 35.4796 7.72442C35.8304 8.00111 36.1008 8.3668 36.2624 8.78341C36.424 9.20003 36.4709 9.65234 36.3984 10.0933L32.6184 33.0216C32.2517 35.2333 29.8251 36.5016 27.7967 35.3999C26.1001 34.4783 23.5801 33.0583 21.3134 31.5766C20.1801 30.8349 16.7084 28.4599 17.1351 26.7699C17.5017 25.3249 23.3351 19.8949 26.6684 16.6666C27.9767 15.3983 27.3801 14.6666 25.8351 15.8333C21.9984 18.7299 15.8384 23.1349 13.8017 24.3749C12.0051 25.4683 11.0684 25.6549 9.94841 25.4683C7.90507 25.1283 6.01007 24.6016 4.46341 23.9599C2.37341 23.0933 2.47507 20.2199 4.46174 19.3833L32.9617 7.38328Z" fill="white"/>
</svg>
